<svg width="24" height="24" viewBox="0 0 24 24" fill="none" xmlns="http://www.w3.org/2000/svg">
<path fill-rule="evenodd" clip-rule="evenodd" d="M13.083 6.19891C13.083 8.2955 11.5468 9.99499 9.65178 9.99499C7.75688 9.99499 6.2207 8.2955 6.2207 6.19891C6.2207 4.10246 7.75688 2.40283 9.65178 2.40283C11.5468 2.40283 13.083 4.10246 13.083 6.19891ZM9.75035 17.3875V15.91L11.4371 15.2696L11.835 14.2514L11.0307 12.5724L12.016 11.5276L13.6358 12.3387L14.5967 11.9169L14.894 10.9516C14.8638 10.8911 14.833 10.8337 14.8015 10.7795C14.4527 10.1769 13.7427 9.67749 12.5983 9.37147C11.8513 10.2211 10.8071 10.7485 9.6513 10.7485C8.49569 10.7485 7.45141 10.2211 6.70454 9.37177C5.56064 9.67734 4.85079 10.1769 4.5018 10.7795C3.99672 11.6522 3.63716 13.3848 3.49783 14.6476C3.46239 14.8652 3.41909 15.4651 3.42924 15.5555C3.6519 17.5259 6.52318 19.0897 9.47656 19.1438C9.53472 19.1452 9.59318 19.1453 9.65149 19.1453C9.71008 19.1453 9.76825 19.1447 9.82641 19.1438C10.4898 19.1346 11.1574 19.0424 11.7949 18.883L11.4388 17.9723L9.75035 17.3875ZM20.574 16.027V17.1604L19.2805 17.6519L18.975 18.4334L19.5921 19.7215L18.8357 20.5232L17.593 19.9005L16.8556 20.2242L16.4322 21.5975H15.3629L14.8994 20.2263L14.162 19.9026L12.9463 20.5569L12.1904 19.7552L12.7777 18.4382L12.4723 17.6568L11.1763 17.2085V16.0748L12.4706 15.5836L12.7758 14.8025L12.1587 13.5142L12.9147 12.7126L14.1575 13.3349L14.8947 13.0113L15.3177 11.6377H16.387L16.8506 13.0094L17.5882 13.333L18.6325 12.7708L18.6618 12.755L18.8034 12.6789L19.5598 13.4803L18.9726 14.7971L19.278 15.5787L20.574 16.027ZM14.0579 16.6177C14.0579 17.6816 14.8715 18.544 15.8752 18.544C16.8789 18.544 17.6922 17.6816 17.6924 16.6177C17.6924 15.5538 16.8789 14.6914 15.8752 14.6914C14.8716 14.6914 14.0579 15.5538 14.0579 16.6177Z" fill="#D4D4D4"/>
</svg>
