<svg width="23" height="24" viewBox="0 0 23 24" fill="none" xmlns="http://www.w3.org/2000/svg">
<path d="M6.59408 10.6807C6.59408 11.3319 6.84496 12.3299 7.34114 13.661C6.77685 14.7782 6.34986 15.5604 6.34986 15.5604C6.34999 15.5603 2.64062 8.76457 2.64062 6.62694C2.64062 4.48932 4.30149 2.7561 6.35018 2.7561C8.13203 2.7561 9.62028 4.0671 9.97779 5.81464C9.46121 5.99106 8.98192 6.25452 8.5563 6.58865C8.53677 5.33466 7.55685 4.32412 6.35053 4.32412C5.13174 4.32412 4.1439 5.35503 4.1439 6.62668C4.1439 7.89846 5.13161 8.92924 6.35053 8.92924C6.54678 8.92924 6.73736 8.90203 6.91852 8.85174C6.70929 9.4202 6.59423 10.0368 6.59423 10.6806L6.59408 10.6807ZM20.3579 6.62701C20.3579 4.48938 18.6973 2.75617 16.6483 2.75617C14.8666 2.75617 13.3782 4.06717 13.021 5.81471C13.5376 5.99126 14.0169 6.25458 14.4425 6.58898C14.462 5.33499 15.4418 4.32418 16.6483 4.32418C17.8669 4.32418 18.8552 5.3551 18.8552 6.62674C18.8552 7.89853 17.8669 8.92931 16.6483 8.92931C16.452 8.92931 16.2614 8.9021 16.0803 8.8518C16.2894 9.41987 16.4042 10.0366 16.4042 10.6806C16.4042 11.3317 16.1534 12.3294 15.6571 13.6608C16.2213 14.778 16.6484 15.5603 16.6484 15.5603C16.6483 15.5605 20.3576 8.76475 20.3576 6.62679L20.3579 6.62701ZM11.4992 21.2438C11.4992 21.2438 7.11326 13.2083 7.11326 10.6807C7.11326 8.15322 9.0769 6.10407 11.4992 6.10407C13.9218 6.10407 15.8852 8.15309 15.8852 10.6807C15.8852 13.2083 11.4992 21.2438 11.4992 21.2438ZM11.4992 13.403C12.9404 13.403 14.1086 12.1845 14.1086 10.6806C14.1086 9.17704 12.9404 7.95812 11.4992 7.95812C10.0581 7.95812 8.8902 9.17704 8.8902 10.6806C8.8902 12.1845 10.0581 13.403 11.4992 13.403Z" fill="#D4D4D4"/>
</svg>
