<svg width="24" height="25" viewBox="0 0 24 25" fill="none" xmlns="http://www.w3.org/2000/svg">
<path d="M4 4.5C3.46957 4.5 2.96086 4.71071 2.58579 5.08579C2.21071 5.46086 2 5.96957 2 6.5V10.5C2.53043 10.5 3.03914 10.7107 3.41421 11.0858C3.78929 11.4609 4 11.9696 4 12.5C4 13.0304 3.78929 13.5391 3.41421 13.9142C3.03914 14.2893 2.53043 14.5 2 14.5V18.5C2 19.0304 2.21071 19.5391 2.58579 19.9142C2.96086 20.2893 3.46957 20.5 4 20.5H20C20.5304 20.5 21.0391 20.2893 21.4142 19.9142C21.7893 19.5391 22 19.0304 22 18.5V14.5C21.4696 14.5 20.9609 14.2893 20.5858 13.9142C20.2107 13.5391 20 13.0304 20 12.5C20 11.9696 20.2107 11.4609 20.5858 11.0858C20.9609 10.7107 21.4696 10.5 22 10.5V6.5C22 5.96957 21.7893 5.46086 21.4142 5.08579C21.0391 4.71071 20.5304 4.5 20 4.5H4ZM15.5 7.5L17 9L8.5 17.5L7 16L15.5 7.5ZM8.81 7.54C9.79 7.54 10.58 8.33 10.58 9.31C10.58 9.77943 10.3935 10.2296 10.0616 10.5616C9.72964 10.8935 9.27943 11.08 8.81 11.08C7.83 11.08 7.04 10.29 7.04 9.31C7.04 8.84057 7.22648 8.39036 7.55842 8.05842C7.89036 7.72648 8.34057 7.54 8.81 7.54ZM15.19 13.92C16.17 13.92 16.96 14.71 16.96 15.69C16.96 16.1594 16.7735 16.6096 16.4416 16.9416C16.1096 17.2735 15.6594 17.46 15.19 17.46C14.21 17.46 13.42 16.67 13.42 15.69C13.42 15.2206 13.6065 14.7704 13.9384 14.4384C14.2704 14.1065 14.7206 13.92 15.19 13.92Z" fill="#828282"/>
</svg>
