<svg width="24" height="24" viewBox="0 0 24 24" fill="none" xmlns="http://www.w3.org/2000/svg">
<path d="M6.61161 12.7351C7.0248 12.7351 7.41914 12.8723 7.71967 13.1467L8.3582 12.5784V10.3832C8.3582 10.0893 8.13286 9.83447 7.83232 9.83447H5.09033C4.80866 9.83447 4.56445 10.0696 4.56445 10.3832V13.5777L5.78517 12.931C6.0481 12.8134 6.32976 12.7351 6.61158 12.7351L6.61161 12.7351Z" fill="white"/>
<path d="M6.63044 16.9877L6.36751 16.7721L4.75232 17.6147C4.69599 17.654 4.63965 17.6735 4.56445 17.6931V19.4765C4.56445 19.7704 4.78979 20.0252 5.09033 20.0252H7.83246C8.11412 20.0252 8.35833 19.7901 8.35833 19.4765V17.2816C8.15173 17.3599 7.96386 17.3991 7.73855 17.3991C7.34421 17.3991 6.94974 17.262 6.63049 16.9877L6.63044 16.9877Z" fill="white"/>
<path d="M10.7044 11.2847L12.0004 11.461L13.7658 9.3052C13.8034 9.26596 13.8409 9.20718 13.8785 9.16795V7.42374C13.8785 7.12983 13.6532 6.875 13.3526 6.875L10.6294 6.87514C10.3477 6.87514 10.1035 7.11027 10.1035 7.42388V11.3042C10.235 11.2847 10.3477 11.265 10.4791 11.265C10.573 11.2651 10.6481 11.2847 10.7044 11.2847Z" fill="white"/>
<path d="M12.5075 15.2435L11.0426 15.0474L10.1035 15.8901V19.4961C10.1035 19.79 10.3289 20.0448 10.6294 20.0448H13.3715C13.6532 20.0448 13.8974 19.8097 13.8974 19.4961V14.7926C13.5781 15.0865 13.1649 15.2433 12.733 15.2433C12.6578 15.2435 12.5826 15.2435 12.5075 15.2435Z" fill="white"/>
<path d="M16.7142 9.34441L18.6299 6.75742C18.8365 6.48306 19.0995 6.26748 19.4187 6.16945V4.48404C19.4187 4.19013 19.1934 3.9353 18.8929 3.9353L16.1509 3.93544C15.8692 3.93544 15.625 4.17057 15.625 4.48418V8.7565C15.7565 8.79574 15.8692 8.83484 15.9819 8.9133L16.7142 9.34441Z" fill="white"/>
<path d="M17.1651 13.5971C16.8646 13.5971 16.5453 13.5188 16.2824 13.362L15.625 12.9701V19.5158C15.625 19.8097 15.8503 20.0645 16.1509 20.0645H18.893C19.1747 20.0645 19.4189 19.8294 19.4189 19.5158V11.7158L18.5738 12.8721C18.2358 13.3424 17.7286 13.5973 17.1652 13.5973L17.1651 13.5971Z" fill="white"/>
<path d="M20.5841 7.14954C20.2085 6.83594 19.645 6.91441 19.3445 7.30634L16.9405 10.5596L15.5506 9.71698C15.175 9.50139 14.7242 9.57972 14.4426 9.91301L12.3766 12.4411L10.6111 12.2059C10.3669 12.1667 10.1228 12.2452 9.93496 12.4215L7.7563 14.3617L7.17411 13.8718C6.91118 13.6367 6.53558 13.5974 6.2163 13.7542L3.56811 15.165C3.13618 15.4001 2.96705 15.9488 3.17364 16.3997C3.32391 16.7133 3.64317 16.9092 3.96245 16.9092C4.09398 16.9092 4.22538 16.87 4.35693 16.8112L6.47924 15.6745L7.17411 16.282C7.51211 16.5564 7.98164 16.5564 8.30105 16.2624L10.7427 14.0871L12.5832 14.3222C12.8837 14.3615 13.1654 14.2439 13.3532 14.0086L15.269 11.6961L16.6963 12.5585C17.0719 12.7936 17.5603 12.6957 17.842 12.3234L20.6967 8.46259C21.0347 8.0511 20.9597 7.46314 20.5841 7.14954Z" fill="white"/>
</svg>
