<svg width="160" height="160" viewBox="0 0 160 160" fill="none" xmlns="http://www.w3.org/2000/svg">
<path d="M133.333 59.875V40H113.333V26.75H133.333C137 26.75 140.14 28.0485 142.753 30.6455C145.366 33.2425 146.671 36.3607 146.666 40V59.875H133.333ZM13.333 59.875V40C13.333 36.3563 14.6397 33.2359 17.253 30.6389C19.8664 28.0419 23.0041 26.7456 26.6664 26.75H46.6664V40H26.6664V59.875H13.333ZM113.333 132.75V119.5H133.333V99.625H146.666V119.5C146.666 123.144 145.36 126.264 142.746 128.861C140.133 131.458 136.995 132.754 133.333 132.75H113.333ZM26.6664 132.75C22.9997 132.75 19.8597 131.452 17.2464 128.855C14.633 126.258 13.3286 123.139 13.333 119.5V99.625H26.6664V119.5H46.6664V132.75H26.6664ZM39.9997 106.25V53.25H120V106.25H39.9997Z" fill="white"/>
</svg>
