<svg width="160" height="161" viewBox="0 0 160 161" fill="none" xmlns="http://www.w3.org/2000/svg">
<path fill-rule="evenodd" clip-rule="evenodd" d="M74.9863 13.8335C59.0338 15.0356 44.0409 21.9171 32.7288 33.2293C21.4166 44.5414 14.5351 59.5343 13.333 75.4868H33.1997C33.858 75.4868 34.5099 75.6165 35.1182 75.8684C35.7264 76.1204 36.2791 76.4897 36.7446 76.9552C37.2102 77.4207 37.5794 77.9734 37.8314 78.5816C38.0833 79.1899 38.213 79.8418 38.213 80.5002C38.213 81.1585 38.0833 81.8104 37.8314 82.4187C37.5794 83.0269 37.2102 83.5796 36.7446 84.0451C36.2791 84.5107 35.7264 84.8799 35.1182 85.1319C34.5099 85.3838 33.858 85.5135 33.1997 85.5135H13.333C14.5351 101.466 21.4166 116.459 32.7288 127.771C44.0409 139.083 59.0338 145.965 74.9863 147.167V127.3C74.9863 125.971 75.5145 124.695 76.4547 123.755C77.3949 122.815 78.6701 122.287 79.9997 122.287C81.3293 122.287 82.6045 122.815 83.5446 123.755C84.4848 124.695 85.013 125.971 85.013 127.3V147.167C100.966 145.965 115.958 139.083 127.271 127.771C138.583 116.459 145.464 101.466 146.666 85.5135H126.8C125.47 85.5135 124.195 84.9853 123.255 84.0451C122.315 83.1049 121.786 81.8298 121.786 80.5002C121.786 79.1705 122.315 77.8954 123.255 76.9552C124.195 76.015 125.47 75.4868 126.8 75.4868H146.666C145.464 59.5343 138.583 44.5414 127.271 33.2293C115.958 21.9171 100.966 15.0356 85.013 13.8335V33.7002C85.013 35.0298 84.4848 36.3049 83.5446 37.2451C82.6045 38.1853 81.3293 38.7135 79.9997 38.7135C78.6701 38.7135 77.3949 38.1853 76.4547 37.2451C75.5145 36.3049 74.9863 35.0298 74.9863 33.7002V13.8335ZM61.613 80.5002C61.613 77.7335 63.8597 75.4868 66.6263 75.4868H74.9863V67.1268C74.9863 65.7972 75.5145 64.522 76.4547 63.5819C77.3949 62.6417 78.6701 62.1135 79.9997 62.1135C81.3293 62.1135 82.6045 62.6417 83.5446 63.5819C84.4848 64.522 85.013 65.7972 85.013 67.1268V75.4868H93.373C94.7026 75.4868 95.9778 76.015 96.918 76.9552C97.8582 77.8954 98.3863 79.1705 98.3863 80.5002C98.3863 81.8298 97.8582 83.1049 96.918 84.0451C95.9778 84.9853 94.7026 85.5135 93.373 85.5135H85.013V93.8735C85.013 95.2031 84.4848 96.4783 83.5446 97.4185C82.6045 98.3586 81.3293 98.8868 79.9997 98.8868C78.6701 98.8868 77.3949 98.3586 76.4547 97.4185C75.5145 96.4783 74.9863 95.2031 74.9863 93.8735V85.5135H66.6263C65.2967 85.5135 64.0216 84.9853 63.0814 84.0451C62.1412 83.1049 61.613 81.8298 61.613 80.5002Z" fill="white"/>
</svg>
