<svg width="121" height="160" viewBox="0 0 121 160" fill="none" xmlns="http://www.w3.org/2000/svg">
<path d="M42.9647 89.0497L49.5641 67.5546L32.2172 53.6016H53.7123L60.5002 32.4836L67.2881 53.6016H88.7832L71.2477 67.5546L77.8471 89.0497L60.5002 75.6624L42.9647 89.0497ZM15.2474 159.192V100.929C10.4707 95.6491 6.76246 89.6153 4.12271 82.8274C1.48296 76.0395 0.163086 68.8116 0.163086 61.1438C0.163086 44.2997 6.00824 30.0324 17.6986 18.3421C29.3889 6.6518 43.6561 0.806641 60.5002 0.806641C77.3443 0.806641 91.6115 6.6518 103.302 18.3421C114.992 30.0324 120.837 44.2997 120.837 61.1438C120.837 68.8116 119.517 76.0395 116.878 82.8274C114.238 89.6153 110.53 95.6491 105.753 100.929V159.192L60.5002 144.107L15.2474 159.192ZM60.5002 106.397C73.0704 106.397 83.7551 101.997 92.5543 93.1979C101.353 84.3987 105.753 73.714 105.753 61.1438C105.753 48.5735 101.353 37.8888 92.5543 29.0897C83.7551 20.2905 73.0704 15.8909 60.5002 15.8909C47.93 15.8909 37.2453 20.2905 28.4461 29.0897C19.6469 37.8888 15.2474 48.5735 15.2474 61.1438C15.2474 73.714 19.6469 84.3987 28.4461 93.1979C37.2453 101.997 47.93 106.397 60.5002 106.397Z" fill="white"/>
</svg>
