<svg width="170" height="171" viewBox="0 0 170 171" fill="none" xmlns="http://www.w3.org/2000/svg">
<path d="M28.1564 149.5V128.25H50.1147L32.0522 69.1043C28.8647 67.3335 26.2368 64.7363 24.1685 61.3127C22.1001 57.889 21.0707 54.2293 21.0801 50.3335C21.0801 44.4307 23.1461 39.4133 27.2781 35.2814C31.41 31.1495 36.425 29.0835 42.3231 29.0835C46.9272 29.0835 51.0308 30.4128 54.6339 33.0714C58.2369 35.73 60.7421 39.1229 62.1493 43.2501H84.816V36.1668C84.816 34.1599 85.496 32.4764 86.856 31.1164C88.216 29.7564 89.8994 29.0788 91.9064 29.0835C92.9689 29.0835 94.0031 29.3196 95.0089 29.7918C96.0147 30.264 96.8694 30.9724 97.5731 31.9168L109.615 20.5835C110.677 19.521 111.948 18.841 113.426 18.5435C114.904 18.246 116.349 18.4538 117.761 19.1668L145.386 31.9168C146.802 32.6251 147.777 33.6593 148.311 35.0193C148.845 36.3793 148.814 37.7063 148.219 39.0001C147.511 40.4168 146.476 41.3329 145.116 41.7485C143.756 42.164 142.429 42.0743 141.136 41.4793L115.636 29.7918L98.9897 45.3752V55.2918L115.636 70.521L141.136 58.8335C142.434 58.2432 143.792 58.1842 145.208 58.6564C146.625 59.1286 147.629 60.014 148.219 61.3127C148.927 62.7293 148.986 64.087 148.396 65.3856C147.806 66.6842 146.802 67.6876 145.386 68.396L117.761 81.5002C116.344 82.2085 114.897 82.4139 113.418 82.1164C111.94 81.8189 110.673 81.1413 109.615 80.0835L97.5731 68.7501C96.8647 69.4585 96.01 70.1078 95.0089 70.6981C94.0078 71.2883 92.9736 71.5835 91.9064 71.5835C89.8994 71.5835 88.2183 70.9058 86.8631 69.5506C85.5078 68.1953 84.8278 66.5118 84.8231 64.5001V57.4168H62.1564C61.8022 58.3613 61.4174 59.2467 61.0018 60.0731C60.5863 60.8995 60.0267 61.7849 59.3231 62.7293L94.7397 128.25H120.24V149.5H28.1564ZM42.3231 57.4168C44.33 57.4168 46.0135 56.7368 47.3735 55.3768C48.7335 54.0168 49.4088 52.3357 49.3993 50.3335C49.3993 48.3265 48.7217 46.6431 47.3664 45.2831C46.0111 43.9231 44.33 43.2454 42.3231 43.2501C40.3161 43.2501 38.635 43.9301 37.2797 45.2901C35.9244 46.6501 35.2421 48.3313 35.2326 50.3335C35.2326 52.3404 35.9126 54.0239 37.2726 55.3839C38.6326 56.7439 40.3208 57.4215 42.3231 57.4168Z" fill="white"/>
</svg>
