<svg width="40" height="40" viewBox="0 0 40 40" fill="none" xmlns="http://www.w3.org/2000/svg">
<path d="M5.09375 11.8453C5.28278 11.017 5.74748 10.2775 6.41173 9.74777C7.07598 9.21807 7.90041 8.92963 8.75 8.92969H31.25C32.0996 8.92963 32.924 9.21807 33.5883 9.74777C34.2525 10.2775 34.7172 11.017 34.9062 11.8453L20 20.9559L5.09375 11.8453ZM5 13.9866V27.3066L15.8806 20.6353L5 13.9866ZM17.6769 21.7359L5.35813 29.2866C5.66249 29.9283 6.14286 30.4705 6.74334 30.8499C7.34382 31.2293 8.0397 31.4304 8.75 31.4297H31.25C31.9602 31.4298 32.6558 31.2283 33.2559 30.8486C33.8561 30.4689 34.336 29.9265 34.64 29.2847L22.3212 21.7341L20 23.1534L17.6769 21.7359ZM24.1194 20.6372L35 27.3066V13.9866L24.1194 20.6353V20.6372Z" fill="black"/>
</svg>
