<svg width="26" height="26" viewBox="0 0 26 26" fill="none" xmlns="http://www.w3.org/2000/svg">
<path d="M12.9995 11.6009C12.5089 11.6009 12.0383 11.8009 11.6914 12.1571C11.3445 12.5133 11.1496 12.9963 11.1496 13.5C11.1496 14.0037 11.3445 14.4867 11.6914 14.8429C12.0383 15.1991 12.5089 15.3991 12.9995 15.3991C13.4901 15.3991 13.9606 15.1991 14.3075 14.8429C14.6544 14.4867 14.8493 14.0037 14.8493 13.5C14.8493 12.9963 14.6544 12.5133 14.3075 12.1571C13.9606 11.8009 13.4901 11.6009 12.9995 11.6009ZM12.9995 16.6652C12.1818 16.6652 11.3976 16.3318 10.8194 15.7382C10.2412 15.1446 9.91643 14.3395 9.91643 13.5C9.91643 12.6605 10.2412 11.8554 10.8194 11.2618C11.3976 10.6682 12.1818 10.3348 12.9995 10.3348C13.8171 10.3348 14.6013 10.6682 15.1795 11.2618C15.7577 11.8554 16.0825 12.6605 16.0825 13.5C16.0825 14.3395 15.7577 15.1446 15.1795 15.7382C14.6013 16.3318 13.8171 16.6652 12.9995 16.6652ZM12.9995 8.75214C9.91643 8.75214 7.28352 10.7209 6.2168 13.5C7.28352 16.2791 9.91643 18.2479 12.9995 18.2479C16.0825 18.2479 18.7154 16.2791 19.7821 13.5C18.7154 10.7209 16.0825 8.75214 12.9995 8.75214Z" fill="#828282"/>
</svg>
