<svg width="27" height="26" viewBox="0 0 27 26" fill="none" xmlns="http://www.w3.org/2000/svg">
<path d="M13.6655 11.1107C13.1749 11.1107 12.7044 11.3108 12.3575 11.6669C12.0105 12.0231 11.8157 12.5061 11.8157 13.0098C11.8157 13.5135 12.0105 13.9966 12.3575 14.3527C12.7044 14.7089 13.1749 14.909 13.6655 14.909C14.1561 14.909 14.6266 14.7089 14.9735 14.3527C15.3204 13.9966 15.5153 13.5135 15.5153 13.0098C15.5153 12.5061 15.3204 12.0231 14.9735 11.6669C14.6266 11.3108 14.1561 11.1107 13.6655 11.1107ZM13.6655 16.1751C12.8478 16.1751 12.0636 15.8416 11.4854 15.248C10.9073 14.6544 10.5824 13.8493 10.5824 13.0098C10.5824 12.1704 10.9073 11.3653 11.4854 10.7717C12.0636 10.1781 12.8478 9.84458 13.6655 9.84458C14.4831 9.84458 15.2673 10.1781 15.8455 10.7717C16.4237 11.3653 16.7485 12.1704 16.7485 13.0098C16.7485 13.8493 16.4237 14.6544 15.8455 15.248C15.2673 15.8416 14.4831 16.1751 13.6655 16.1751ZM13.6655 8.26196C10.5824 8.26196 7.94954 10.2307 6.88281 13.0098C7.94954 15.7889 10.5824 17.7577 13.6655 17.7577C16.7485 17.7577 19.3814 15.7889 20.4481 13.0098C19.3814 10.2307 16.7485 8.26196 13.6655 8.26196Z" fill="#f4dd89"/>
</svg>
