<svg width="23" height="24" viewBox="0 0 23 24" fill="none" xmlns="http://www.w3.org/2000/svg">
<path fill-rule="evenodd" clip-rule="evenodd" d="M14.1145 11.1764L12.148 8.83236L11.7534 8.36065C11.6657 8.25506 11.6454 8.10736 11.6995 7.98417C11.7534 7.85737 11.8747 7.77645 12.0063 7.77645H13.0182V3.55289C13.0182 3.35931 13.17 3.20093 13.3555 3.20093H15.3793C15.5648 3.20093 15.7166 3.35931 15.7166 3.55289V7.77645H16.7285C16.8601 7.77645 16.9815 7.85737 17.0354 7.98401C17.0895 8.1072 17.0691 8.25506 16.9815 8.36065L16.5868 8.83236L14.6204 11.1764C14.5563 11.2538 14.4653 11.2961 14.3674 11.2961C14.2695 11.2961 14.1786 11.2538 14.1145 11.1764ZM15.0557 13.0559H9.96926C9.41949 13.0559 8.97094 12.5878 8.97094 12.0142L8.96416 8.11444C8.96416 7.14998 8.21201 6.36862 7.29124 6.36862H5.24729C4.32633 6.36862 3.57422 7.15002 3.57422 8.11428V19.0392C3.57422 20.0106 4.32984 20.799 5.26071 20.799H16.3915C16.5719 20.799 16.7288 20.637 16.7288 20.4471V14.8016C16.7288 13.8373 15.98 13.0559 15.0559 13.0559L15.0557 13.0559ZM5.25056 10.6027C5.06174 10.6027 4.91326 10.4443 4.91326 10.2507L4.9098 8.48036C4.9098 8.0932 5.20991 7.77643 5.58108 7.77643L7.28445 7.76936C7.46997 7.76936 7.62175 7.92429 7.62175 8.12133C7.62175 8.31491 7.47328 8.47329 7.28445 8.47329L5.5844 8.48036L5.58771 10.2507C5.58786 10.4443 5.43608 10.6027 5.25056 10.6027ZM17.7406 8.83237H17.4809L15.1299 11.641C14.9377 11.8698 14.6611 12 14.3677 12C14.0742 12 13.7976 11.8698 13.6054 11.6375L11.251 8.83238H9.63874L9.64552 12.0106C9.64552 12.2007 9.79053 12.352 9.96926 12.352H15.0557C16.351 12.352 17.4034 13.4502 17.4034 14.8016V20.4471C17.4034 20.5703 17.3832 20.69 17.3427 20.7991H17.7407C18.6715 20.7991 19.4272 20.0106 19.4272 19.0392V10.5921C19.4272 9.62079 18.6715 8.83231 17.7407 8.83231L17.7406 8.83237Z" fill="white"/>
</svg>
