<svg width="30" height="26" viewBox="0 0 30 26" fill="none" xmlns="http://www.w3.org/2000/svg">
<g clip-path="url(#clip0_1571_3055)">
<path d="M5.45563 25.3758V23.7211C5.45563 23.0867 5.09539 22.6731 4.47793 22.6731C4.16926 22.6731 3.8348 22.7834 3.60324 23.142C3.42324 22.8386 3.16602 22.6731 2.78012 22.6731C2.52277 22.6731 2.26566 22.7558 2.05977 23.0592V22.7283H1.51953V25.3758H2.05977V23.9141C2.05977 23.4454 2.29133 23.2246 2.65156 23.2246C3.01156 23.2246 3.1918 23.4729 3.1918 23.9141V25.3758H3.73203V23.9141C3.73203 23.4454 3.98914 23.2246 4.32359 23.2246C4.68383 23.2246 4.86383 23.4729 4.86383 23.9141V25.3758H5.45563ZM13.4561 22.7283H12.5816V21.9285H12.0413V22.7283H11.5525V23.2522H12.0412V24.4657C12.0412 25.0725 12.2728 25.4309 12.8902 25.4309C13.1218 25.4309 13.3789 25.3483 13.5591 25.238L13.4047 24.7415C13.2504 24.8518 13.0704 24.8794 12.9417 24.8794C12.6845 24.8794 12.5816 24.714 12.5816 24.4381V23.2522H13.4561V22.7283ZM18.0354 22.673C17.7267 22.673 17.5209 22.8386 17.3922 23.0592V22.7283H16.852V25.3758H17.3922V23.8866C17.3922 23.4454 17.5722 23.1971 17.9067 23.1971C18.0096 23.1971 18.1382 23.2248 18.2411 23.2523L18.3955 22.7008C18.2926 22.6731 18.1382 22.6731 18.0354 22.6731V22.673ZM11.1152 22.9489C10.8579 22.7558 10.4977 22.6731 10.1118 22.6731C9.49449 22.6731 9.08293 23.004 9.08293 23.528C9.08293 23.9694 9.3916 24.2175 9.93184 24.3003L10.1891 24.3279C10.4721 24.3829 10.6264 24.4657 10.6264 24.6037C10.6264 24.7966 10.4206 24.9346 10.0604 24.9346C9.70027 24.9346 9.41726 24.7966 9.23715 24.6588L8.97992 25.1C9.26293 25.3206 9.64883 25.4309 10.0346 25.4309C10.755 25.4309 11.1666 25.0725 11.1666 24.576C11.1666 24.1072 10.8322 23.8589 10.3176 23.7763L10.0604 23.7486C9.82883 23.721 9.64883 23.666 9.64883 23.5005C9.64883 23.3074 9.82883 23.1971 10.1118 23.1971C10.4206 23.1971 10.7293 23.3349 10.8836 23.4177L11.1152 22.9489ZM25.4701 22.6731C25.1613 22.6731 24.9555 22.8386 24.8268 23.0592V22.7283H24.2866V25.3758H24.8268V23.8866C24.8268 23.4454 25.007 23.1971 25.3413 23.1971C25.4443 23.1971 25.573 23.2248 25.6759 23.2523L25.8302 22.7008C25.7273 22.6731 25.573 22.6731 25.4701 22.6731ZM18.5756 24.052C18.5756 24.8518 19.09 25.4309 19.8876 25.4309C20.2477 25.4309 20.505 25.3483 20.7622 25.1277L20.505 24.6588C20.2992 24.8243 20.0934 24.9069 19.8618 24.9069C19.4245 24.9069 19.1158 24.576 19.1158 24.052C19.1158 23.5557 19.4245 23.2246 19.8618 23.1971C20.0934 23.1971 20.2992 23.2798 20.505 23.4454L20.7622 22.9765C20.505 22.7558 20.2477 22.6731 19.8876 22.6731C19.09 22.6731 18.5756 23.2523 18.5756 24.052ZM23.5664 24.052V22.7283H23.0261V23.0592C22.846 22.8111 22.5888 22.6731 22.2543 22.6731C21.5598 22.6731 21.0195 23.2523 21.0195 24.052C21.0195 24.8518 21.5598 25.4309 22.2543 25.4309C22.6145 25.4309 22.8718 25.2931 23.0261 25.0449V25.3758H23.5664V24.052ZM21.5854 24.052C21.5854 23.5832 21.8684 23.1971 22.3314 23.1971C22.7688 23.1971 23.0776 23.5557 23.0776 24.052C23.0776 24.5209 22.7688 24.9069 22.3314 24.9069C21.8684 24.8793 21.5854 24.5209 21.5854 24.052ZM15.1284 22.6731C14.408 22.6731 13.8935 23.2246 13.8935 24.052C13.8935 24.8794 14.4079 25.4309 15.1541 25.4309C15.5142 25.4309 15.8744 25.3206 16.1574 25.0725L15.9001 24.6588C15.6943 24.8243 15.4371 24.9346 15.1798 24.9346C14.8454 24.9346 14.5109 24.7691 14.4337 24.3001H16.2603V24.0797C16.2861 23.2246 15.8231 22.6731 15.1284 22.6731ZM15.1284 23.1695C15.4627 23.1695 15.6944 23.3902 15.7457 23.8039H14.4595C14.5109 23.4454 14.7425 23.1695 15.1284 23.1695ZM28.5314 24.052V21.6803H27.9911V23.0592C27.811 22.8111 27.5538 22.6731 27.2193 22.6731C26.5248 22.6731 25.9845 23.2523 25.9845 24.052C25.9845 24.8518 26.5248 25.4309 27.2193 25.4309C27.5796 25.4309 27.8368 25.2931 27.9911 25.0449V25.3758H28.5314V24.052ZM26.5505 24.052C26.5505 23.5832 26.8334 23.1971 27.2966 23.1971C27.7339 23.1971 28.0426 23.5557 28.0426 24.052C28.0426 24.5209 27.7339 24.9069 27.2966 24.9069C26.8334 24.8793 26.5505 24.5209 26.5505 24.052ZM8.49113 24.052V22.7283H7.9509V23.0592C7.77078 22.8111 7.51356 22.6731 7.1791 22.6731C6.48453 22.6731 5.9443 23.2523 5.9443 24.052C5.9443 24.8518 6.48453 25.4309 7.1791 25.4309C7.53934 25.4309 7.79656 25.2931 7.9509 25.0449V25.3758H8.49113V24.052ZM6.48453 24.052C6.48453 23.5832 6.76754 23.1971 7.23055 23.1971C7.66789 23.1971 7.97668 23.5557 7.97668 24.052C7.97668 24.5209 7.66789 24.9069 7.23055 24.9069C6.76754 24.8793 6.48453 24.5209 6.48453 24.052Z" fill="black"/>
<path d="M10.9336 2.62354H19.0371V18.233H10.9336V2.62354Z" fill="#FF5F00"/>
<path d="M11.4479 10.4283C11.4479 7.25678 12.8371 4.44372 14.9722 2.62349C13.4031 1.29975 11.4223 0.5 9.26133 0.5C4.14176 0.5 0 4.94008 0 10.4283C0 15.9163 4.14176 20.3565 9.26121 20.3565C11.4221 20.3565 13.403 19.5568 14.9722 18.2329C12.8371 16.4403 11.4479 13.5997 11.4479 10.4283Z" fill="#EB001B"/>
<path d="M29.9683 10.4283C29.9683 15.9163 25.8266 20.3565 20.7071 20.3565C18.5462 20.3565 16.5654 19.5568 14.9961 18.2329C17.157 16.4128 18.5205 13.5997 18.5205 10.4283C18.5205 7.25678 17.1313 4.44372 14.9961 2.62349C16.5652 1.29975 18.5462 0.5 20.7071 0.5C25.8266 0.5 29.9683 4.96771 29.9683 10.4283Z" fill="#F79E1B"/>
</g>
<defs>
<clipPath id="clip0_1571_3055">
<rect width="30" height="25" fill="white" transform="translate(0 0.5)"/>
</clipPath>
</defs>
</svg>
