<svg width="40" height="40" viewBox="0 0 40 40" fill="none" xmlns="http://www.w3.org/2000/svg">
<g clip-path="url(#clip0_1493_6205)">
<path fill-rule="evenodd" clip-rule="evenodd" d="M7.77094 5.02205C8.12089 4.67263 8.5411 4.40157 9.00374 4.22683C9.46637 4.05209 9.96085 3.97767 10.4544 4.0085C10.948 4.03932 11.4294 4.17469 11.8667 4.40563C12.304 4.63656 12.6872 4.9578 12.9909 5.34805L16.5809 9.96005C17.2389 10.806 17.4709 11.908 17.2109 12.948L16.1169 17.328C16.0604 17.5549 16.0634 17.7925 16.1258 18.0179C16.1882 18.2432 16.3078 18.4486 16.4729 18.614L21.3869 23.528C21.5526 23.6936 21.7583 23.8133 21.984 23.8757C22.2098 23.9381 22.4478 23.941 22.6749 23.884L27.0529 22.79C27.5662 22.6617 28.1019 22.6518 28.6195 22.7609C29.1371 22.87 29.6232 23.0954 30.0409 23.42L34.6529 27.008C36.3109 28.298 36.4629 30.748 34.9789 32.23L32.9109 34.298C31.4309 35.778 29.2189 36.428 27.1569 35.702C21.8793 33.8451 17.0875 30.8237 13.1369 26.862C9.17552 22.9121 6.15416 18.121 4.29694 12.844C3.57294 10.784 4.22294 8.57005 5.70294 7.09005L7.77094 5.02205Z" fill="black"/>
</g>
<defs>
<clipPath id="clip0_1493_6205">
<rect width="32" height="32" fill="white" transform="translate(4 4)"/>
</clipPath>
</defs>
</svg>
