<svg width="24" height="24" viewBox="0 0 24 24" fill="none" xmlns="http://www.w3.org/2000/svg">
<path d="M2.94682 13.9354C2.65768 10.6172 4.01418 7.57737 6.28244 5.67461C7.17187 4.93199 8.484 5.55856 8.484 6.7421C8.484 7.18302 8.2839 7.57745 7.97258 7.85586C6.37147 9.22488 5.41534 11.3597 5.6376 13.7498C5.94891 16.836 8.30606 19.342 11.2637 19.6901C15.1331 20.131 18.4019 16.9983 18.4019 13.0536C18.4019 10.9653 17.468 9.08561 16.0224 7.87907C15.7111 7.60067 15.511 7.20622 15.511 6.78846C15.511 5.62824 16.8008 4.9554 17.6903 5.69786C19.7583 7.43819 21.0926 10.1067 21.0926 13.0768C21.0926 18.5299 16.6451 22.9387 11.3303 22.521C6.94953 22.173 3.36929 18.5067 2.94678 13.9354L2.94682 13.9354ZM11.9975 1.45142C11.2636 1.45142 10.6632 2.07798 10.6632 2.84376V9.27137C10.6632 10.0371 11.2636 10.6637 11.9975 10.6637C12.7314 10.6637 13.3318 10.0372 13.3318 9.27137V2.84376C13.3318 2.07802 12.7314 1.45158 11.9975 1.45158V1.45142Z" fill="#D4D4D4"/>
</svg>
