<svg width="34" height="34" viewBox="0 0 34 34" fill="none" xmlns="http://www.w3.org/2000/svg">
<g clip-path="url(#clip0_1493_6211)">
<path d="M31.875 10.625V5.12988C31.875 4.85076 31.8199 4.57438 31.713 4.31653C31.6062 4.05868 31.4495 3.82441 31.2521 3.62711L28.2472 0.622227C27.8488 0.223895 27.3085 8.51082e-05 26.7451 0L10.625 0C10.0614 0 9.52091 0.223883 9.1224 0.622398C8.72388 1.02091 8.5 1.56141 8.5 2.125V31.875C8.5 32.4386 8.72388 32.9791 9.1224 33.3776C9.52091 33.7761 10.0614 34 10.625 34H31.875C32.4386 34 32.9791 33.7761 33.3776 33.3776C33.7761 32.9791 34 32.4386 34 31.875V12.75C34 12.1864 33.7761 11.6459 33.3776 11.2474C32.9791 10.8489 32.4386 10.625 31.875 10.625ZM19.125 28.6875C19.125 28.9693 19.0131 29.2395 18.8138 29.4388C18.6145 29.6381 18.3443 29.75 18.0625 29.75H15.9375C15.6557 29.75 15.3855 29.6381 15.1862 29.4388C14.9869 29.2395 14.875 28.9693 14.875 28.6875V26.5625C14.875 26.2807 14.9869 26.0105 15.1862 25.8112C15.3855 25.6119 15.6557 25.5 15.9375 25.5H18.0625C18.3443 25.5 18.6145 25.6119 18.8138 25.8112C19.0131 26.0105 19.125 26.2807 19.125 26.5625V28.6875ZM19.125 20.1875C19.125 20.4693 19.0131 20.7395 18.8138 20.9388C18.6145 21.1381 18.3443 21.25 18.0625 21.25H15.9375C15.6557 21.25 15.3855 21.1381 15.1862 20.9388C14.9869 20.7395 14.875 20.4693 14.875 20.1875V18.0625C14.875 17.7807 14.9869 17.5105 15.1862 17.3112C15.3855 17.1119 15.6557 17 15.9375 17H18.0625C18.3443 17 18.6145 17.1119 18.8138 17.3112C19.0131 17.5105 19.125 17.7807 19.125 18.0625V20.1875ZM27.625 28.6875C27.625 28.9693 27.5131 29.2395 27.3138 29.4388C27.1145 29.6381 26.8443 29.75 26.5625 29.75H24.4375C24.1557 29.75 23.8855 29.6381 23.6862 29.4388C23.4869 29.2395 23.375 28.9693 23.375 28.6875V26.5625C23.375 26.2807 23.4869 26.0105 23.6862 25.8112C23.8855 25.6119 24.1557 25.5 24.4375 25.5H26.5625C26.8443 25.5 27.1145 25.6119 27.3138 25.8112C27.5131 26.0105 27.625 26.2807 27.625 26.5625V28.6875ZM27.625 20.1875C27.625 20.4693 27.5131 20.7395 27.3138 20.9388C27.1145 21.1381 26.8443 21.25 26.5625 21.25H24.4375C24.1557 21.25 23.8855 21.1381 23.6862 20.9388C23.4869 20.7395 23.375 20.4693 23.375 20.1875V18.0625C23.375 17.7807 23.4869 17.5105 23.6862 17.3112C23.8855 17.1119 24.1557 17 24.4375 17H26.5625C26.8443 17 27.1145 17.1119 27.3138 17.3112C27.5131 17.5105 27.625 17.7807 27.625 18.0625V20.1875ZM27.625 12.75H12.75V4.25H23.375V7.4375C23.375 7.71929 23.4869 7.98954 23.6862 8.1888C23.8855 8.38806 24.1557 8.5 24.4375 8.5H27.625V12.75ZM4.25 8.5H2.125C1.56141 8.5 1.02091 8.72388 0.622398 9.1224C0.223883 9.52091 0 10.0614 0 10.625L0 31.875C0 32.4386 0.223883 32.9791 0.622398 33.3776C1.02091 33.7761 1.56141 34 2.125 34H4.25C4.81359 34 5.35409 33.7761 5.7526 33.3776C6.15112 32.9791 6.375 32.4386 6.375 31.875V10.625C6.375 10.0614 6.15112 9.52091 5.7526 9.1224C5.35409 8.72388 4.81359 8.5 4.25 8.5Z" fill="black"/>
</g>
<defs>
<clipPath id="clip0_1493_6211">
<rect width="34" height="34" fill="white"/>
</clipPath>
</defs>
</svg>
